<svg width="645" height="114" viewBox="0 0 645 114" fill="none" xmlns="http://www.w3.org/2000/svg">
<path d="M50.92 65.272C51.432 62.8827 51.7307 60.8347 51.816 59.128C51.9013 57.4213 51.688 56.0133 51.176 54.904C50.7493 53.7093 50.1947 52.7707 49.512 52.088C48.8293 51.32 47.72 50.7653 46.184 50.424C44.7333 49.9973 43.2827 49.6987 41.832 49.528C40.4667 49.3573 38.5893 49.1867 36.2 49.016H71.528C69.0533 49.3573 67.0907 50.3813 65.64 52.088C64.1893 53.7093 62.9093 56.7813 61.8 61.304L55.784 89.72C55.528 85.2827 54.12 83.064 51.56 83.064C50.4507 83.064 49.2133 83.576 47.848 84.6C46.4827 85.624 45.16 86.7333 43.88 87.928C42.6 89.1227 40.8933 90.232 38.76 91.256C36.6267 92.28 34.3653 92.792 31.976 92.792C19.8587 92.792 11.5387 87.5013 7.016 76.92C2.92 67.448 2.57867 56.0987 5.992 42.872C9.49067 29.6453 15.6347 19.064 24.424 11.128C32.1893 4.13066 40.7227 0.631996 50.024 0.631996C53.2667 0.631996 56.168 0.97333 58.728 1.656C61.288 2.25333 63.5493 3.23466 65.512 4.6C67.56 5.96533 69.0107 7.032 69.864 7.8C70.7173 8.568 71.9547 9.80533 73.576 11.512L62.056 35.064C64.4453 28.664 65.2987 23.032 64.616 18.168C64.0187 13.304 62.3547 9.42133 59.624 6.52C56.8933 3.61867 53.5653 2.168 49.64 2.168C41.5333 2.168 34.152 7.71467 27.496 18.808C21.0107 29.4747 17.0853 41.5493 15.72 55.032C14.2693 69.1973 16.3173 79.3947 21.864 85.624C24.936 89.1227 28.9893 90.872 34.024 90.872C37.7787 90.872 40.8933 89.3787 43.368 86.392C45.928 83.4053 47.7627 79.48 48.872 74.616L50.92 65.272ZM86.414 21.752C84.1953 21.752 83.086 20.5573 83.086 18.168C83.086 15.608 84.0673 13.688 86.03 12.408C86.798 11.896 87.6513 11.64 88.59 11.64C90.8087 11.64 91.918 12.8773 91.918 15.352C91.918 17.912 90.9367 19.7893 88.974 20.984C88.206 21.496 87.3527 21.752 86.414 21.752ZM81.166 86.264C80.5687 89.5067 80.4407 91.5547 80.782 92.408C81.2087 93.3467 82.19 93.9013 83.726 94.072H77.326C74.5953 94.072 72.7607 93.2613 71.822 91.64C70.8833 90.0187 70.67 88.0987 71.182 85.88L79.758 45.944C80.0993 44.408 80.27 43.128 80.27 42.104C80.27 40.9947 80.1847 40.184 80.014 39.672C79.9287 39.0747 79.5873 38.6907 78.99 38.52C78.3927 38.264 77.8807 38.136 77.454 38.136C77.0273 38.0507 76.3447 38.008 75.406 38.008L91.918 35.704L81.166 86.264ZM107.095 39.672C112.215 34.04 117.932 31.224 124.247 31.224C130.647 31.224 135.212 34.04 137.943 39.672C140.674 45.2187 141.058 52.6 139.095 61.816C137.132 70.9467 133.591 78.328 128.471 83.96C123.436 89.5067 117.719 92.28 111.319 92.28C105.004 92.28 100.482 89.5067 97.751 83.96C95.0203 78.328 94.6363 70.9467 96.599 61.816C98.5617 52.6 102.06 45.2187 107.095 39.672ZM128.855 61.816C129.794 57.2933 130.434 53.3253 130.775 49.912C131.202 46.4987 131.287 43.4267 131.031 40.696C130.775 37.9653 130.05 35.9173 128.855 34.552C127.746 33.1013 126.167 32.376 124.119 32.376C120.108 32.376 116.823 34.8933 114.263 39.928C111.703 44.9627 109.399 52.2587 107.351 61.816C106.327 66.424 105.602 70.392 105.175 73.72C104.834 77.048 104.748 80.0773 104.919 82.808C105.09 85.4533 105.73 87.4587 106.839 88.824C108.034 90.1893 109.655 90.872 111.703 90.872C115.714 90.872 119.042 88.3547 121.687 83.32C124.418 78.2853 126.807 71.1173 128.855 61.816ZM186.184 32.632C186.867 37.0693 184.691 43.9387 179.656 53.24L159.176 91H156.36L150.984 40.568C150.899 39.2027 150.771 38.264 150.6 37.752C150.515 37.1547 150.344 36.4293 150.088 35.576C149.832 34.6373 149.405 33.9547 148.808 33.528C148.211 33.1013 147.485 32.8027 146.632 32.632H154.696C155.891 32.632 156.915 32.8453 157.768 33.272C158.707 33.6133 159.389 33.9973 159.816 34.424C160.243 34.7653 160.584 35.4053 160.84 36.344C161.181 37.2827 161.352 37.9227 161.352 38.264C161.437 38.6053 161.523 39.288 161.608 40.312L165.448 76.92L178.632 52.728C180.509 48.8027 181.192 45.1333 180.68 41.72C180.168 38.3067 178.632 35.2773 176.072 32.632H186.184ZM227.407 52.088L220.751 83.192C220.41 84.5573 220.495 85.624 221.007 86.392C221.604 87.0747 222.415 87.2453 223.439 86.904C224.463 86.4773 225.402 85.624 226.255 84.344C225.402 86.3067 223.866 88.056 221.647 89.592C219.428 91.128 217.508 91.896 215.887 91.896C213.583 91.896 211.876 91.1707 210.767 89.72C209.658 88.184 209.316 86.264 209.743 83.96C206.5 87.032 203.599 89.208 201.039 90.488C198.479 91.768 195.663 92.408 192.591 92.408C189.519 92.408 187.172 91.1707 185.551 88.696C184.015 86.136 183.631 82.8507 184.399 78.84C185.167 75.3413 186.532 72.3547 188.495 69.88C190.458 67.32 192.719 65.272 195.279 63.736C197.839 62.2 200.442 60.792 203.087 59.512C205.732 58.1467 208.378 56.5253 211.023 54.648C213.754 52.6853 215.887 50.5093 217.423 48.12L218.063 45.176C218.831 41.4213 218.66 38.3493 217.551 35.96C216.527 33.5707 214.522 32.376 211.535 32.376C209.658 32.376 207.823 32.9733 206.031 34.168C204.239 35.2773 202.874 36.6427 201.935 38.264C200.996 39.8853 200.399 41.592 200.143 43.384C199.887 45.176 200.314 46.712 201.423 47.992L189.263 56.056C189.263 55.9707 189.519 55.16 190.031 53.624C190.543 52.088 190.884 51.1067 191.055 50.68C191.226 50.168 191.61 49.144 192.207 47.608C192.89 45.9867 193.444 44.8773 193.871 44.28C194.298 43.5973 194.938 42.5733 195.791 41.208C196.644 39.8427 197.455 38.8187 198.223 38.136C198.991 37.4533 199.972 36.6427 201.167 35.704C202.362 34.68 203.556 33.9547 204.751 33.528C205.946 33.016 207.311 32.5893 208.847 32.248C210.468 31.9067 212.132 31.736 213.839 31.736C217.252 31.736 220.068 32.3333 222.287 33.528C224.506 34.7227 225.999 36.3013 226.767 38.264C227.535 40.1413 227.962 42.3173 228.047 44.792C228.218 47.1813 228.004 49.6133 227.407 52.088ZM210.383 82.424L216.911 50.296C215.29 52.2587 213.114 54.3067 210.383 56.44C207.738 58.5733 205.434 60.3653 203.471 61.816C201.594 63.1813 199.759 65.1867 197.967 67.832C196.175 70.4773 194.895 73.5493 194.127 77.048C193.359 80.5467 193.487 83.4053 194.511 85.624C195.535 87.7573 197.114 88.824 199.247 88.824C200.954 88.824 202.618 88.3973 204.239 87.544C205.86 86.6053 207.908 84.8987 210.383 82.424ZM283.17 48.12L275.746 83.192C275.234 86.4347 275.149 88.5253 275.49 89.464C275.917 90.3173 276.898 90.8293 278.434 91H272.034C269.218 91 267.341 90.1893 266.402 88.568C265.549 86.9467 265.335 85.0267 265.762 82.808L272.802 49.4C273.314 47.1813 273.655 45.3893 273.826 44.024C273.997 42.5733 273.997 41.1227 273.826 39.672C273.741 38.2213 273.314 37.1547 272.546 36.472C271.778 35.704 270.626 35.32 269.09 35.32C267.383 35.32 265.207 36.0027 262.562 37.368C259.917 38.7333 257.527 40.312 255.394 42.104L246.562 83.192C246.05 86.4347 245.965 88.5253 246.306 89.464C246.733 90.3173 247.714 90.8293 249.25 91H230.69C232.226 90.8293 233.421 90.232 234.274 89.208C235.213 88.184 235.981 86.136 236.578 83.064L245.154 42.872C245.495 41.336 245.666 40.056 245.666 39.032C245.666 37.9227 245.581 37.112 245.41 36.6C245.325 36.0027 244.983 35.6187 244.386 35.448C243.789 35.192 243.277 35.064 242.85 35.064C242.509 34.9787 241.826 34.936 240.802 34.936L257.442 32.632L255.65 40.568C262.903 34.424 268.919 31.352 273.698 31.352C277.709 31.352 280.525 32.888 282.146 35.96C283.853 39.032 284.194 43.0853 283.17 48.12ZM337.17 48.12L329.746 83.192C329.234 86.4347 329.149 88.5253 329.49 89.464C329.917 90.3173 330.898 90.8293 332.434 91H326.034C323.218 91 321.341 90.1893 320.402 88.568C319.549 86.9467 319.335 85.0267 319.762 82.808L326.802 49.4C327.314 47.1813 327.655 45.3893 327.826 44.024C327.997 42.5733 327.997 41.1227 327.826 39.672C327.741 38.2213 327.314 37.1547 326.546 36.472C325.778 35.704 324.626 35.32 323.09 35.32C321.383 35.32 319.207 36.0027 316.562 37.368C313.917 38.7333 311.527 40.312 309.394 42.104L300.562 83.192C300.05 86.4347 299.965 88.5253 300.306 89.464C300.733 90.3173 301.714 90.8293 303.25 91H284.69C286.226 90.8293 287.421 90.232 288.274 89.208C289.213 88.184 289.981 86.136 290.578 83.064L299.154 42.872C299.495 41.336 299.666 40.056 299.666 39.032C299.666 37.9227 299.581 37.112 299.41 36.6C299.325 36.0027 298.983 35.6187 298.386 35.448C297.789 35.192 297.277 35.064 296.85 35.064C296.509 34.9787 295.826 34.936 294.802 34.936L311.442 32.632L309.65 40.568C316.903 34.424 322.919 31.352 327.698 31.352C331.709 31.352 334.525 32.888 336.146 35.96C337.853 39.032 338.194 43.0853 337.17 48.12ZM385.282 52.088L378.626 83.192C378.285 84.5573 378.37 85.624 378.882 86.392C379.479 87.0747 380.29 87.2453 381.314 86.904C382.338 86.4773 383.277 85.624 384.13 84.344C383.277 86.3067 381.741 88.056 379.522 89.592C377.303 91.128 375.383 91.896 373.762 91.896C371.458 91.896 369.751 91.1707 368.642 89.72C367.533 88.184 367.191 86.264 367.618 83.96C364.375 87.032 361.474 89.208 358.914 90.488C356.354 91.768 353.538 92.408 350.466 92.408C347.394 92.408 345.047 91.1707 343.426 88.696C341.89 86.136 341.506 82.8507 342.274 78.84C343.042 75.3413 344.407 72.3547 346.37 69.88C348.333 67.32 350.594 65.272 353.154 63.736C355.714 62.2 358.317 60.792 360.962 59.512C363.607 58.1467 366.253 56.5253 368.898 54.648C371.629 52.6853 373.762 50.5093 375.298 48.12L375.938 45.176C376.706 41.4213 376.535 38.3493 375.426 35.96C374.402 33.5707 372.397 32.376 369.41 32.376C367.533 32.376 365.698 32.9733 363.906 34.168C362.114 35.2773 360.749 36.6427 359.81 38.264C358.871 39.8853 358.274 41.592 358.018 43.384C357.762 45.176 358.189 46.712 359.298 47.992L347.138 56.056C347.138 55.9707 347.394 55.16 347.906 53.624C348.418 52.088 348.759 51.1067 348.93 50.68C349.101 50.168 349.485 49.144 350.082 47.608C350.765 45.9867 351.319 44.8773 351.746 44.28C352.173 43.5973 352.813 42.5733 353.666 41.208C354.519 39.8427 355.33 38.8187 356.098 38.136C356.866 37.4533 357.847 36.6427 359.042 35.704C360.237 34.68 361.431 33.9547 362.626 33.528C363.821 33.016 365.186 32.5893 366.722 32.248C368.343 31.9067 370.007 31.736 371.714 31.736C375.127 31.736 377.943 32.3333 380.162 33.528C382.381 34.7227 383.874 36.3013 384.642 38.264C385.41 40.1413 385.837 42.3173 385.922 44.792C386.093 47.1813 385.879 49.6133 385.282 52.088ZM368.258 82.424L374.786 50.296C373.165 52.2587 370.989 54.3067 368.258 56.44C365.613 58.5733 363.309 60.3653 361.346 61.816C359.469 63.1813 357.634 65.1867 355.842 67.832C354.05 70.4773 352.77 73.5493 352.002 77.048C351.234 80.5467 351.362 83.4053 352.386 85.624C353.41 87.7573 354.989 88.824 357.122 88.824C358.829 88.824 360.493 88.3973 362.114 87.544C363.735 86.6053 365.783 84.8987 368.258 82.424ZM497.577 7.544L488.745 32.12C489.598 28.1947 490.025 24.568 490.025 21.24C490.11 17.8267 489.769 14.712 489.001 11.896C488.233 8.99466 486.782 6.73333 484.649 5.112C482.516 3.49066 479.828 2.67999 476.585 2.67999C472.66 2.67999 469.076 4.04533 465.833 6.77599C462.676 9.50666 460.585 13.2187 459.561 17.912C459.049 20.472 459.22 23.032 460.073 25.592C461.012 28.152 462.377 30.5413 464.169 32.76C466.046 34.9787 468.094 37.24 470.313 39.544C472.617 41.7627 474.878 44.0667 477.097 46.456C479.401 48.76 481.449 51.1493 483.241 53.624C485.033 56.0987 486.313 58.872 487.081 61.944C487.849 65.016 487.892 68.1733 487.209 71.416C485.844 77.7307 482.43 82.8933 476.969 86.904C471.593 90.8293 465.534 92.792 458.793 92.792C449.15 92.792 440.105 89.208 431.657 82.04L442.153 58.232C440.532 64.4613 440.062 70.0933 440.745 75.128C441.513 80.0773 443.518 84.1307 446.761 87.288C450.004 90.36 454.057 91.896 458.921 91.896C462.932 91.896 466.473 90.5733 469.545 87.928C472.617 85.2827 474.75 81.144 475.945 75.512C476.542 72.5253 476.414 69.624 475.561 66.808C474.793 63.9067 473.513 61.304 471.721 59C469.929 56.696 467.881 54.4347 465.577 52.216C463.273 49.9973 460.969 47.7787 458.665 45.56C456.446 43.256 454.441 40.952 452.649 38.648C450.857 36.2587 449.534 33.656 448.681 30.84C447.913 27.9387 447.828 24.952 448.425 21.88C449.876 15.1387 453.289 10.0613 458.665 6.64799C464.126 3.14933 470.27 1.39999 477.097 1.39999C480.937 1.39999 484.82 2.08266 488.745 3.448C492.67 4.81333 495.614 6.17866 497.577 7.544ZM509.595 39.672C514.715 34.04 520.432 31.224 526.747 31.224C533.147 31.224 537.712 34.04 540.443 39.672C543.174 45.2187 543.558 52.6 541.595 61.816C539.632 70.9467 536.091 78.328 530.971 83.96C525.936 89.5067 520.219 92.28 513.819 92.28C507.504 92.28 502.982 89.5067 500.251 83.96C497.52 78.328 497.136 70.9467 499.099 61.816C501.062 52.6 504.56 45.2187 509.595 39.672ZM531.355 61.816C532.294 57.2933 532.934 53.3253 533.275 49.912C533.702 46.4987 533.787 43.4267 533.531 40.696C533.275 37.9653 532.55 35.9173 531.355 34.552C530.246 33.1013 528.667 32.376 526.619 32.376C522.608 32.376 519.323 34.8933 516.763 39.928C514.203 44.9627 511.899 52.2587 509.851 61.816C508.827 66.424 508.102 70.392 507.675 73.72C507.334 77.048 507.248 80.0773 507.419 82.808C507.59 85.4533 508.23 87.4587 509.339 88.824C510.534 90.1893 512.155 90.872 514.203 90.872C518.214 90.872 521.542 88.3547 524.187 83.32C526.918 78.2853 529.307 71.1173 531.355 61.816ZM591.699 13.048L581.971 18.168C584.019 14.2427 585.043 10.9147 585.043 8.184C585.043 5.368 583.976 3.96 581.843 3.96C579.966 3.96 578.344 5.02666 576.979 7.16C575.699 9.29333 574.718 11.896 574.035 14.968L570.323 32.632H581.459L580.947 34.552H569.939L559.315 83.448C555.048 103.245 547.795 113.144 537.555 113.144C532.606 113.144 529.363 109.731 527.827 102.904L535.379 99.832C533.928 103.331 533.416 106.232 533.843 108.536C534.27 110.925 535.55 112.12 537.683 112.12C539.646 112.12 541.31 111.053 542.675 108.92C543.955 106.787 544.894 104.184 545.491 101.112L559.827 34.552H555.219L555.731 32.632H560.339C564.52 12.8347 571.731 2.936 581.971 2.936C586.92 2.936 590.163 6.30666 591.699 13.048ZM593.539 21.752C591.32 21.752 590.211 20.5573 590.211 18.168C590.211 15.608 591.192 13.688 593.155 12.408C593.923 11.896 594.776 11.64 595.715 11.64C597.934 11.64 599.043 12.8773 599.043 15.352C599.043 17.912 598.062 19.7893 596.099 20.984C595.331 21.496 594.478 21.752 593.539 21.752ZM588.291 86.264C587.694 89.5067 587.566 91.5547 587.907 92.408C588.334 93.3467 589.315 93.9013 590.851 94.072H584.451C581.72 94.072 579.886 93.2613 578.947 91.64C578.008 90.0187 577.795 88.0987 578.307 85.88L586.883 45.944C587.224 44.408 587.395 43.128 587.395 42.104C587.395 40.9947 587.31 40.184 587.139 39.672C587.054 39.0747 586.712 38.6907 586.115 38.52C585.518 38.264 585.006 38.136 584.579 38.136C584.152 38.0507 583.47 38.008 582.531 38.008L599.043 35.704L588.291 86.264ZM643.532 52.088L636.876 83.192C636.535 84.5573 636.62 85.624 637.132 86.392C637.729 87.0747 638.54 87.2453 639.564 86.904C640.588 86.4773 641.527 85.624 642.38 84.344C641.527 86.3067 639.991 88.056 637.772 89.592C635.553 91.128 633.633 91.896 632.012 91.896C629.708 91.896 628.001 91.1707 626.892 89.72C625.783 88.184 625.441 86.264 625.868 83.96C622.625 87.032 619.724 89.208 617.164 90.488C614.604 91.768 611.788 92.408 608.716 92.408C605.644 92.408 603.297 91.1707 601.676 88.696C600.14 86.136 599.756 82.8507 600.524 78.84C601.292 75.3413 602.657 72.3547 604.62 69.88C606.583 67.32 608.844 65.272 611.404 63.736C613.964 62.2 616.567 60.792 619.212 59.512C621.857 58.1467 624.503 56.5253 627.148 54.648C629.879 52.6853 632.012 50.5093 633.548 48.12L634.188 45.176C634.956 41.4213 634.785 38.3493 633.676 35.96C632.652 33.5707 630.647 32.376 627.66 32.376C625.783 32.376 623.948 32.9733 622.156 34.168C620.364 35.2773 618.999 36.6427 618.06 38.264C617.121 39.8853 616.524 41.592 616.268 43.384C616.012 45.176 616.439 46.712 617.548 47.992L605.388 56.056C605.388 55.9707 605.644 55.16 606.156 53.624C606.668 52.088 607.009 51.1067 607.18 50.68C607.351 50.168 607.735 49.144 608.332 47.608C609.015 45.9867 609.569 44.8773 609.996 44.28C610.423 43.5973 611.063 42.5733 611.916 41.208C612.769 39.8427 613.58 38.8187 614.348 38.136C615.116 37.4533 616.097 36.6427 617.292 35.704C618.487 34.68 619.681 33.9547 620.876 33.528C622.071 33.016 623.436 32.5893 624.972 32.248C626.593 31.9067 628.257 31.736 629.964 31.736C633.377 31.736 636.193 32.3333 638.412 33.528C640.631 34.7227 642.124 36.3013 642.892 38.264C643.66 40.1413 644.087 42.3173 644.172 44.792C644.343 47.1813 644.129 49.6133 643.532 52.088ZM626.508 82.424L633.036 50.296C631.415 52.2587 629.239 54.3067 626.508 56.44C623.863 58.5733 621.559 60.3653 619.596 61.816C617.719 63.1813 615.884 65.1867 614.092 67.832C612.3 70.4773 611.02 73.5493 610.252 77.048C609.484 80.5467 609.612 83.4053 610.636 85.624C611.66 87.7573 613.239 88.824 615.372 88.824C617.079 88.824 618.743 88.3973 620.364 87.544C621.985 86.6053 624.033 84.8987 626.508 82.424Z" fill="white"/>
</svg>
