<svg width="220" height="123" viewBox="0 0 220 123" fill="none" xmlns="http://www.w3.org/2000/svg">
<g style="mix-blend-mode:soft-light">
<path d="M63.3849 54.2136C63.2576 54.4151 63.353 54.6909 63.5863 54.7757C65.4952 55.4862 66.5133 54.2561 67.5844 53.3228C72.0703 49.399 75.273 44.4889 78.5605 39.5895C81.6783 34.9445 85.5597 30.9677 91.0106 28.974C91.5409 28.7831 92.1984 28.974 92.8453 29.0906C93.0892 29.133 93.2165 29.3876 93.121 29.6209C92.8771 30.1935 92.665 30.8086 92.2302 31.0737C86.4293 34.637 82.5161 39.8758 79.0377 45.5282C78.7408 46.016 78.5393 46.5569 78.4544 47.119C78.3484 47.8295 78.2741 48.5506 78.1999 49.2718C78.1787 49.4839 78.3272 49.6641 78.5393 49.6853C79.7164 49.8338 81.0526 50.2792 81.8798 49.8126C84.9022 48.1158 87.7655 46.1009 90.544 44.0223C92.3681 42.6543 94.033 41.0848 95.8253 39.4834C96.0904 39.2395 95.9101 38.8047 95.5495 38.8153C94.3618 38.8789 93.2801 38.932 92.1984 38.985C90.7349 39.0486 90.0986 38.2851 90.2153 36.8958C90.2789 36.1853 90.3319 35.3687 90.7137 34.8173C92.6862 31.9539 95.0087 29.3876 98.2432 27.9559C100.64 26.8954 102.708 28.1998 103.111 30.7874C103.121 30.8828 103.164 30.9995 103.217 31.1798C103.291 31.4237 103.588 31.5404 103.8 31.3919C106.377 29.6633 108.869 27.9983 111.351 26.3333L112.687 27.3196C111.277 31.9645 109.368 36.461 107.713 41.0848C107.586 41.4559 108.032 41.7635 108.328 41.4984C116.187 34.6794 123.61 27.2666 133.833 23.4912C134.067 23.4064 134.321 23.5655 134.353 23.8094C134.618 25.8455 133.186 26.5348 132.2 27.2454C128.319 30.0451 124.087 32.3993 120.418 35.443C115.943 39.1653 111.87 43.3754 107.703 47.4477C106.388 48.7309 105.37 50.311 104.15 51.6897C103.853 52.029 103.418 52.2411 102.793 52.6017C102.506 52.7608 102.156 52.5169 102.22 52.1987C103.599 45.3479 106.059 39.3244 108 33.0887C108.095 32.7811 107.777 32.4842 107.48 32.6221C104.871 33.8204 102.697 35.5066 101.085 37.8291C97.7342 42.6437 93.7785 46.8432 88.9003 50.1308C86.249 51.9124 83.3327 52.9941 80.1512 52.5699C78.709 52.379 77.3515 51.4776 75.8774 50.8201C75.7502 50.767 75.6017 50.7776 75.4957 50.8625C72.8444 52.8244 69.8645 55.0514 66.8633 57.2679C65.4634 58.2965 63.8197 58.1056 62.9076 56.9709C62.1335 55.9953 61.8471 54.3727 61.9002 53.0577C62.0274 50.311 63.8621 48.2855 65.4634 46.2069C65.8028 45.7721 66.0679 45.2843 66.3754 44.8177C66.2694 44.6904 66.1633 44.5632 66.0467 44.4253C64.3499 45.5812 62.6213 46.7054 60.9563 47.9037C57.9657 50.0459 55.0812 52.3472 52.0164 54.3727C49.0576 56.3346 46.8942 58.9116 45.611 62.1355C43.0871 68.4666 39.2481 74.0236 35.5576 79.6866C31.4535 85.9647 26.7343 91.7338 21.3894 96.9832C17.4232 100.875 13.3721 104.672 9.17258 108.299C7.79394 109.486 5.90627 110.239 4.12464 110.801C1.73854 111.554 -0.361233 108.606 0.0523582 105.637C1.25071 97.1741 5.70477 90.5036 11.4102 84.48C19.3745 76.081 28.6114 69.2514 38.0391 62.6339C42.5568 59.4631 45.7913 55.2423 48.3365 49.7808C48.4956 49.4414 48.1032 49.1021 47.785 49.3036C45.7595 50.5868 43.9991 51.6473 42.3341 52.8456C34.7304 58.2965 26.7873 63.143 18.0913 66.685C15.334 67.8091 12.6298 67.7031 10.424 65.5609C8.01664 63.2278 7.99543 60.2266 8.87564 57.2785C11.0178 50.0671 14.8144 43.7042 19.5124 37.9033C22.9696 33.6401 26.5116 29.4088 30.3612 25.4956C40.2237 15.4527 51.6028 7.47782 64.456 1.66633C66.1633 0.892173 68.0404 0.383138 69.8857 0.0649906C72.9187 -0.45465 74.064 2.239 73.5868 4.67812C72.7384 8.9519 70.3523 12.5045 67.489 15.5163C63.8409 19.3553 59.7368 22.7701 55.6433 26.1425C54.6464 26.9696 52.9602 27.1499 51.571 27.2454C51.1468 27.2772 50.6696 26.4606 50.203 25.8667C50.0863 25.7183 50.1075 25.5062 50.2454 25.3683C50.659 24.9653 51.062 24.4563 51.4968 24.4245C54.5722 24.2018 56.4386 21.9535 58.4218 20.1719C62.7592 16.2799 66.7996 12.0379 69.4933 6.76729C70.0129 5.75983 70.2462 4.6145 70.5432 3.49038L69.3872 2.51472C68.3161 2.97073 67.2238 3.39493 66.2588 4.01002C61.5078 7.0112 56.7356 10.0018 52.08 13.1408C48.3153 15.686 44.752 18.5175 41.4115 21.593C31.6338 30.6071 22.4817 40.194 15.4507 51.573C13.7539 54.3197 12.3647 57.3103 11.1769 60.3221C10.7739 61.3401 11.039 63.1854 11.7602 63.8853C12.4283 64.5428 14.316 64.6383 15.2916 64.1823C19.2048 62.3582 23.1286 60.4599 26.7661 58.1481C33.4154 53.9273 39.9586 49.5263 46.3534 44.9343C50.0333 42.2937 53.2678 39.2819 54.9858 34.6476C56.0463 31.7843 58.7717 29.4724 60.9669 27.1287C61.5078 26.556 63.0561 26.4712 63.9045 26.7894C64.4453 26.9908 64.7847 28.3483 64.7953 29.1967C64.8589 32.3569 62.7592 34.4779 60.8821 36.6731C57.6582 40.4379 54.3813 44.1708 51.2104 47.978C50.5953 48.7097 50.203 49.6323 49.5879 50.8307C49.4394 51.117 49.7045 51.4564 50.0227 51.3715C50.6696 51.2018 51.1256 51.1064 51.4755 50.8519C55.3357 47.9992 59.1111 45.0298 63.0031 42.2195C68.5282 38.2427 73.4171 33.5659 78.1575 28.7088C78.4756 28.3801 78.9953 28.2528 79.5255 28.0725C79.7482 27.9983 79.9815 28.1362 80.024 28.3695C80.3845 30.1723 79.1968 31.2646 78.4014 32.3781C75.729 36.1217 72.8232 39.6955 70.2038 43.4709C67.8283 46.9069 65.6967 50.5019 63.3849 54.1606V54.2136ZM41.6236 63.4187C41.4009 63.2278 41.1888 63.0263 40.9661 62.8354C40.0222 63.5778 39.0254 64.2671 38.124 65.0625C33.776 68.9651 29.4598 72.8889 25.1224 76.8021C18.314 82.9423 11.6117 89.178 6.56377 96.9408C4.34735 100.345 2.76721 103.961 2.88387 108.394C2.88387 108.659 3.1702 108.84 3.41411 108.733C4.70791 108.193 5.9805 107.864 6.78647 107.068C11.442 102.477 16.1294 97.8952 20.435 92.9852C24.1573 88.7432 27.5085 84.1619 30.7748 79.5594C34.5289 74.2781 38.0179 68.806 41.6236 63.4187ZM91.9333 35.1248C91.6681 35.4642 91.403 36.4822 91.4136 37.0973C91.4136 37.4261 91.7848 37.8185 92.0817 37.9669C92.7923 38.3275 94.0224 37.4685 95.0087 37.0019C99.5582 34.8703 101.181 33.2159 100.894 30.448C100.873 30.2253 100.661 28.9952 99.8763 29.1118C96.3237 29.6209 94.0224 32.5266 91.9333 35.1248ZM56.7038 36.1005C58.8672 34.8491 60.6806 32.1554 60.8397 29.8966C60.8715 29.5148 60.3519 29.3451 60.1398 29.6633C58.7929 31.6782 57.5734 33.5129 56.2053 35.549C55.9826 35.8778 56.3644 36.2913 56.7038 36.1005Z" fill="#1D1D1B"/>
<path d="M63.3849 54.2136C63.2576 54.4151 63.353 54.6909 63.5863 54.7757C65.4952 55.4862 66.5133 54.2561 67.5844 53.3228C72.0703 49.399 75.273 44.4889 78.5605 39.5895C81.6783 34.9445 85.5597 30.9677 91.0106 28.974C91.5409 28.7831 92.1984 28.974 92.8453 29.0906C93.0892 29.133 93.2165 29.3876 93.121 29.6209C92.8771 30.1935 92.665 30.8086 92.2302 31.0737C86.4293 34.637 82.5161 39.8758 79.0377 45.5282C78.7408 46.016 78.5393 46.5569 78.4544 47.119C78.3484 47.8295 78.2741 48.5506 78.1999 49.2718C78.1787 49.4839 78.3272 49.6641 78.5393 49.6853C79.7164 49.8338 81.0526 50.2792 81.8798 49.8126C84.9022 48.1158 87.7655 46.1009 90.544 44.0223C92.3681 42.6543 94.033 41.0848 95.8253 39.4834C96.0904 39.2395 95.9101 38.8047 95.5495 38.8153C94.3618 38.8789 93.2801 38.932 92.1984 38.985C90.7349 39.0486 90.0986 38.2851 90.2153 36.8958C90.2789 36.1853 90.3319 35.3687 90.7137 34.8173C92.6862 31.9539 95.0087 29.3876 98.2432 27.9559C100.64 26.8954 102.708 28.1998 103.111 30.7874C103.121 30.8828 103.164 30.9995 103.217 31.1798C103.291 31.4237 103.588 31.5404 103.8 31.3919C106.377 29.6633 108.869 27.9983 111.351 26.3333L112.687 27.3196C111.277 31.9645 109.368 36.461 107.713 41.0848C107.586 41.4559 108.032 41.7635 108.328 41.4984C116.187 34.6794 123.61 27.2666 133.833 23.4912C134.067 23.4064 134.321 23.5655 134.353 23.8094C134.618 25.8455 133.186 26.5348 132.2 27.2454C128.319 30.0451 124.087 32.3993 120.418 35.443C115.943 39.1653 111.87 43.3754 107.703 47.4477C106.388 48.7309 105.37 50.311 104.15 51.6897C103.853 52.029 103.418 52.2411 102.793 52.6017C102.506 52.7608 102.156 52.5169 102.22 52.1987C103.599 45.3479 106.059 39.3244 108 33.0887C108.095 32.7811 107.777 32.4842 107.48 32.6221C104.871 33.8204 102.697 35.5066 101.085 37.8291C97.7342 42.6437 93.7785 46.8432 88.9003 50.1308C86.249 51.9124 83.3327 52.9941 80.1512 52.5699C78.709 52.379 77.3515 51.4776 75.8774 50.8201C75.7502 50.767 75.6017 50.7776 75.4957 50.8625C72.8444 52.8244 69.8645 55.0514 66.8633 57.2679C65.4634 58.2965 63.8197 58.1056 62.9076 56.9709C62.1335 55.9953 61.8471 54.3727 61.9002 53.0577C62.0274 50.311 63.8621 48.2855 65.4634 46.2069C65.8028 45.7721 66.0679 45.2843 66.3754 44.8177C66.2694 44.6904 66.1633 44.5632 66.0467 44.4253C64.3499 45.5812 62.6213 46.7054 60.9563 47.9037C57.9657 50.0459 55.0812 52.3472 52.0164 54.3727C49.0576 56.3346 46.8942 58.9116 45.611 62.1355C43.0871 68.4666 39.2481 74.0236 35.5576 79.6866C31.4535 85.9647 26.7343 91.7338 21.3894 96.9832C17.4232 100.875 13.3721 104.672 9.17258 108.299C7.79394 109.486 5.90627 110.239 4.12464 110.801C1.73854 111.554 -0.361233 108.606 0.0523582 105.637C1.25071 97.1741 5.70477 90.5036 11.4102 84.48C19.3745 76.081 28.6114 69.2514 38.0391 62.6339C42.5568 59.4631 45.7913 55.2423 48.3365 49.7808C48.4956 49.4414 48.1032 49.1021 47.785 49.3036C45.7595 50.5868 43.9991 51.6473 42.3341 52.8456C34.7304 58.2965 26.7873 63.143 18.0913 66.685C15.334 67.8091 12.6298 67.7031 10.424 65.5609C8.01664 63.2278 7.99543 60.2266 8.87564 57.2785C11.0178 50.0671 14.8144 43.7042 19.5124 37.9033C22.9696 33.6401 26.5116 29.4088 30.3612 25.4956C40.2237 15.4527 51.6028 7.47782 64.456 1.66633C66.1633 0.892173 68.0404 0.383138 69.8857 0.0649906C72.9187 -0.45465 74.064 2.239 73.5868 4.67812C72.7384 8.9519 70.3523 12.5045 67.489 15.5163C63.8409 19.3553 59.7368 22.7701 55.6433 26.1425C54.6464 26.9696 52.9602 27.1499 51.571 27.2454C51.1468 27.2772 50.6696 26.4606 50.203 25.8667C50.0863 25.7183 50.1075 25.5062 50.2454 25.3683C50.659 24.9653 51.062 24.4563 51.4968 24.4245C54.5722 24.2018 56.4386 21.9535 58.4218 20.1719C62.7592 16.2799 66.7996 12.0379 69.4933 6.76729C70.0129 5.75983 70.2462 4.6145 70.5432 3.49038L69.3872 2.51472C68.3161 2.97073 67.2238 3.39493 66.2588 4.01002C61.5078 7.0112 56.7356 10.0018 52.08 13.1408C48.3153 15.686 44.752 18.5175 41.4115 21.593C31.6338 30.6071 22.4817 40.194 15.4507 51.573C13.7539 54.3197 12.3647 57.3103 11.1769 60.3221C10.7739 61.3401 11.039 63.1854 11.7602 63.8853C12.4283 64.5428 14.316 64.6383 15.2916 64.1823C19.2048 62.3582 23.1286 60.4599 26.7661 58.1481C33.4154 53.9273 39.9586 49.5263 46.3534 44.9343C50.0333 42.2937 53.2678 39.2819 54.9858 34.6476C56.0463 31.7843 58.7717 29.4724 60.9669 27.1287C61.5078 26.556 63.0561 26.4712 63.9045 26.7894C64.4453 26.9908 64.7847 28.3483 64.7953 29.1967C64.8589 32.3569 62.7592 34.4779 60.8821 36.6731C57.6582 40.4379 54.3813 44.1708 51.2104 47.978C50.5953 48.7097 50.203 49.6323 49.5879 50.8307C49.4394 51.117 49.7045 51.4564 50.0227 51.3715C50.6696 51.2018 51.1256 51.1064 51.4755 50.8519C55.3357 47.9992 59.1111 45.0298 63.0031 42.2195C68.5282 38.2427 73.4171 33.5659 78.1575 28.7088C78.4756 28.3801 78.9953 28.2528 79.5255 28.0725C79.7482 27.9983 79.9815 28.1362 80.024 28.3695C80.3845 30.1723 79.1968 31.2646 78.4014 32.3781C75.729 36.1217 72.8232 39.6955 70.2038 43.4709C67.8283 46.9069 65.6967 50.5019 63.3849 54.1606V54.2136ZM41.6236 63.4187C41.4009 63.2278 41.1888 63.0263 40.9661 62.8354C40.0222 63.5778 39.0254 64.2671 38.124 65.0625C33.776 68.9651 29.4598 72.8889 25.1224 76.8021C18.314 82.9423 11.6117 89.178 6.56377 96.9408C4.34735 100.345 2.76721 103.961 2.88387 108.394C2.88387 108.659 3.1702 108.84 3.41411 108.733C4.70791 108.193 5.9805 107.864 6.78647 107.068C11.442 102.477 16.1294 97.8952 20.435 92.9852C24.1573 88.7432 27.5085 84.1619 30.7748 79.5594C34.5289 74.2781 38.0179 68.806 41.6236 63.4187ZM91.9333 35.1248C91.6681 35.4642 91.403 36.4822 91.4136 37.0973C91.4136 37.4261 91.7848 37.8185 92.0817 37.9669C92.7923 38.3275 94.0224 37.4685 95.0087 37.0019C99.5582 34.8703 101.181 33.2159 100.894 30.448C100.873 30.2253 100.661 28.9952 99.8763 29.1118C96.3237 29.6209 94.0224 32.5266 91.9333 35.1248ZM56.7038 36.1005C58.8672 34.8491 60.6806 32.1554 60.8397 29.8966C60.8715 29.5148 60.3519 29.3451 60.1398 29.6633C58.7929 31.6782 57.5734 33.5129 56.2053 35.549C55.9826 35.8778 56.3644 36.2913 56.7038 36.1005Z" fill="white"/>
<path d="M161.099 86.5797C164.333 84.0876 170.548 77.0883 171.449 73.4721C171.969 71.3829 171.131 70.6087 170.378 70.3118C169.074 69.7073 168.024 69.7285 166.073 70.5239C163.527 71.5632 162.181 72.5494 160.144 74.3311C157.122 76.9717 155.065 79.5381 152.339 82.4968C150.855 84.0982 151.735 87.1312 152.424 88.7962C153.06 90.3233 154.609 89.9415 155.913 90.0475C160.664 90.4081 164.302 87.6296 168.204 85.6677C172.595 83.4513 176.858 81.0015 181.227 78.7533C182.934 77.8731 183.984 78.467 183.772 79.9729C183.73 80.291 183.475 80.6728 183.21 80.8425C175.49 85.901 167.43 90.2384 158.448 92.6457C155.128 93.5365 151.682 92.4018 149.858 89.5915C149.253 88.6583 149.221 87.3645 148.85 85.9116C147.694 86.7494 146.549 87.6296 145.34 88.4356C143.495 89.6764 141.681 91.002 139.719 92.0519C135.371 94.3849 133.834 91.6807 133.526 88.3613C133.42 87.2796 133.653 86.1237 133.929 85.0526C134.173 84.077 134.693 83.1756 135.085 82.2317C134.905 82.0408 134.735 81.8499 134.555 81.659C128.478 85.5298 121.871 88.7855 116.495 93.4517C111.15 98.1073 107.056 104.184 101.87 109.603C101.966 108.776 101.807 107.779 102.199 107.143C104.49 103.473 106.897 99.8783 109.315 96.2832C112.634 91.3307 116.007 86.3994 119.337 81.447C119.846 80.694 120.238 79.8774 120.853 78.7957C118.361 78.8381 117.279 80.5031 116.251 81.8924C112.444 87.0145 107.852 91.2353 102.358 94.4486C99.0071 96.4105 95.2742 96.7498 91.361 96.3574C90.2475 86.9933 96.2499 81.2985 102.008 75.5612C103.726 73.8538 105.508 71.7541 109.05 72.0722C107.767 73.6629 106.781 74.9355 105.741 76.1445C102.433 80.0153 99.0602 83.8331 95.7832 87.7357C95.0409 88.6265 94.5001 89.74 94.0865 90.8323C93.8107 91.564 93.588 92.7624 93.9698 93.176C94.3834 93.632 95.6878 93.7698 96.3241 93.4623C98.8481 92.2427 101.383 90.9596 103.684 89.3794C105.847 87.8841 107.693 85.9222 109.739 84.2572C110.63 83.5361 111.691 83.0271 112.868 82.2953C111.945 81.9454 110.938 81.5636 109.93 81.1924C108.456 80.6516 107.576 80.0577 108.021 78.0428C108.721 74.8825 110.354 72.4646 112.709 70.4603C114.437 68.9862 116.622 68.5514 118.849 68.7953C120.917 69.018 121.5 70.1527 120.843 72.3373C120.493 73.4933 120.1 74.6386 119.623 76.1445C122.476 75.031 124.406 73.5357 125.944 71.3723C128.648 67.5651 131.416 63.811 134.332 60.1735C135.403 58.8373 136.835 57.6814 138.298 56.7693C140.016 55.6982 140.907 56.4512 141.172 58.4131C141.957 64.1928 138.935 68.0105 134.682 71.1284C132.211 72.9418 129.496 74.4371 126.866 76.0384C124.098 77.7246 122.465 80.3334 120.938 83.0377C120.217 84.3103 119.517 85.5935 118.807 86.8767C118.944 86.9827 119.093 87.0994 119.231 87.2054C123.865 84.4587 128.446 81.6166 133.155 78.9972C137.864 76.3778 140.907 71.5208 145.923 69.3574L146.507 69.7603C146.21 70.5451 146.061 71.4465 145.584 72.0934C143.537 74.9143 141.172 77.5231 139.359 80.4819C137.917 82.8362 137.036 85.5617 136.093 88.1811C135.902 88.7219 136.368 89.7082 136.835 90.2066C137.068 90.4505 138.139 90.2278 138.585 89.8885C142.265 87.1206 146.019 84.4163 149.487 81.4045C151.141 79.9729 152.997 77.6292 154.619 76.0915C159.604 71.3829 162.52 67.3318 169.498 67.5121C172.245 67.5757 174.376 70.6087 173.549 73.9917C172.584 77.9261 169.668 80.4183 166.995 83.1649C165.914 84.2679 163.739 86.2828 162.435 87.3751C159.826 89.5491 156.072 91.0232 154.45 90.4399M109.58 78.1488C113.143 80.2274 117.873 76.6747 119.072 71.4465C114.512 71.7859 112.348 75.2431 109.58 78.1488ZM139.2 60.2265C138.945 60.0463 138.68 59.866 138.426 59.6751C135.287 63.2277 132.158 66.7804 129.019 70.3224C129.178 70.4603 129.348 70.6087 129.507 70.7466C133.452 67.8621 137.874 65.4123 139.2 60.2159V60.2265Z" fill="#1D1D1B"/>
<path d="M161.099 86.5797C164.333 84.0876 170.548 77.0883 171.449 73.4721C171.969 71.3829 171.131 70.6087 170.378 70.3118C169.074 69.7073 168.024 69.7285 166.073 70.5239C163.527 71.5632 162.181 72.5494 160.144 74.3311C157.122 76.9717 155.065 79.5381 152.339 82.4968C150.855 84.0982 151.735 87.1312 152.424 88.7962C153.06 90.3233 154.609 89.9415 155.913 90.0475C160.664 90.4081 164.302 87.6296 168.204 85.6677C172.595 83.4513 176.858 81.0015 181.227 78.7533C182.934 77.8731 183.984 78.467 183.772 79.9729C183.73 80.291 183.475 80.6728 183.21 80.8425C175.49 85.901 167.43 90.2384 158.448 92.6457C155.128 93.5365 151.682 92.4018 149.858 89.5915C149.253 88.6583 149.221 87.3645 148.85 85.9116C147.694 86.7494 146.549 87.6296 145.34 88.4356C143.495 89.6764 141.681 91.002 139.719 92.0519C135.371 94.3849 133.834 91.6807 133.526 88.3613C133.42 87.2796 133.653 86.1237 133.929 85.0526C134.173 84.077 134.693 83.1756 135.085 82.2317C134.905 82.0408 134.735 81.8499 134.555 81.659C128.478 85.5298 121.871 88.7855 116.495 93.4517C111.15 98.1073 107.056 104.184 101.87 109.603C101.966 108.776 101.807 107.779 102.199 107.143C104.49 103.473 106.897 99.8783 109.315 96.2832C112.634 91.3307 116.007 86.3994 119.337 81.447C119.846 80.694 120.238 79.8774 120.853 78.7957C118.361 78.8381 117.279 80.5031 116.251 81.8924C112.444 87.0145 107.852 91.2353 102.358 94.4486C99.0071 96.4105 95.2742 96.7498 91.361 96.3574C90.2475 86.9933 96.2499 81.2985 102.008 75.5612C103.726 73.8538 105.508 71.7541 109.05 72.0722C107.767 73.6629 106.781 74.9355 105.741 76.1445C102.433 80.0153 99.0602 83.8331 95.7832 87.7357C95.0409 88.6265 94.5001 89.74 94.0865 90.8323C93.8107 91.564 93.588 92.7624 93.9698 93.176C94.3834 93.632 95.6878 93.7698 96.3241 93.4623C98.8481 92.2427 101.383 90.9596 103.684 89.3794C105.847 87.8841 107.693 85.9222 109.739 84.2572C110.63 83.5361 111.691 83.0271 112.868 82.2953C111.945 81.9454 110.938 81.5636 109.93 81.1924C108.456 80.6516 107.576 80.0577 108.021 78.0428C108.721 74.8825 110.354 72.4646 112.709 70.4603C114.437 68.9862 116.622 68.5514 118.849 68.7953C120.917 69.018 121.5 70.1527 120.843 72.3373C120.493 73.4933 120.1 74.6386 119.623 76.1445C122.476 75.031 124.406 73.5357 125.944 71.3723C128.648 67.5651 131.416 63.811 134.332 60.1735C135.403 58.8373 136.835 57.6814 138.298 56.7693C140.016 55.6982 140.907 56.4512 141.172 58.4131C141.957 64.1928 138.935 68.0105 134.682 71.1284C132.211 72.9418 129.496 74.4371 126.866 76.0384C124.098 77.7246 122.465 80.3334 120.938 83.0377C120.217 84.3103 119.517 85.5935 118.807 86.8767C118.944 86.9827 119.093 87.0994 119.231 87.2054C123.865 84.4587 128.446 81.6166 133.155 78.9972C137.864 76.3778 140.907 71.5208 145.923 69.3574L146.507 69.7603C146.21 70.5451 146.061 71.4465 145.584 72.0934C143.537 74.9143 141.172 77.5231 139.359 80.4819C137.917 82.8362 137.036 85.5617 136.093 88.1811C135.902 88.7219 136.368 89.7082 136.835 90.2066C137.068 90.4505 138.139 90.2278 138.585 89.8885C142.265 87.1206 146.019 84.4163 149.487 81.4045C151.141 79.9729 152.997 77.6292 154.619 76.0915C159.604 71.3829 162.52 67.3318 169.498 67.5121C172.245 67.5757 174.376 70.6087 173.549 73.9917C172.584 77.9261 169.668 80.4183 166.995 83.1649C165.914 84.2679 163.739 86.2828 162.435 87.3751C159.826 89.5491 156.072 91.0232 154.45 90.4399M109.58 78.1488C113.143 80.2274 117.873 76.6747 119.072 71.4465C114.512 71.7859 112.348 75.2431 109.58 78.1488ZM139.2 60.2265C138.945 60.0463 138.68 59.866 138.426 59.6751C135.287 63.2277 132.158 66.7804 129.019 70.3224C129.178 70.4603 129.348 70.6087 129.507 70.7466C133.452 67.8621 137.874 65.4123 139.2 60.2159V60.2265Z" fill="white"/>
<path d="M175.915 44.3724C177.485 43.2271 179.15 42.1878 180.613 40.9046C183.964 37.9671 187.146 34.8386 190.508 31.9223C192.926 29.8331 195.259 27.4152 198.748 27.2561C200.179 27.1925 202.141 27.0228 202.958 27.8288C204.368 29.2074 204.633 31.4344 203.849 33.3857C202.343 37.0975 199.66 39.9926 196.637 42.4742C194.58 44.1709 192.204 45.5178 189.882 46.8434C188.928 47.3842 187.708 47.4797 186.329 47.8508C189.002 48.4765 192.766 47.5009 195.757 45.5072C200.285 42.4848 204.665 39.2078 209.363 36.4824C212.184 34.8492 215.493 34.0751 218.589 32.9085C218.78 33.1524 218.982 33.3857 219.173 33.6297C218.876 34.2447 218.727 35.0719 218.239 35.4537C216.649 36.7157 215.016 37.9565 213.255 38.9639C207.783 42.0712 202.268 45.1148 196.712 48.0629C194.994 48.975 193.106 49.6643 191.218 50.1521C188.397 50.8732 185.099 49.5052 183.911 46.96C183.349 45.7405 183.593 44.1391 183.455 42.4423C181.759 43.5983 180.21 44.6588 178.662 45.7086C178.333 45.9313 178.015 46.2495 177.655 46.3025C176.403 46.4934 175.141 46.5889 173.89 46.7161C173.985 45.4647 174.07 44.2134 174.165 42.962C174.187 42.7287 174.229 42.506 174.325 41.8803C172.225 43.6195 170.486 45.2314 168.587 46.5995C165.883 48.5402 165.279 48.275 164.176 45.1254C164.006 44.6376 163.804 44.1603 163.497 43.365C162.193 44.1815 161.005 45.0087 159.743 45.698C158.311 46.4722 156.858 47.2782 155.321 47.766C153.306 48.4023 152.775 47.9145 152.627 45.8465C152.606 45.592 152.542 45.3375 152.478 45.083C152.468 45.0299 152.394 44.9875 152.128 44.7012C151.216 45.189 150.22 45.698 149.244 46.2389C148.321 46.7479 147.484 47.5221 146.497 47.7554C145.617 47.9675 144.355 47.9145 143.729 47.3948C143.22 46.9706 143.358 45.7086 143.326 44.8178C143.316 44.33 143.56 43.8316 143.846 42.7393C140.028 45.1996 136.836 47.4372 133.464 49.3567C131.152 50.6717 128.649 51.7959 126.093 52.4958C123.58 53.1851 120.939 52.4003 119.147 50.5657C118.256 49.6643 117.864 47.7024 118.097 46.3874C118.988 41.5091 121.565 37.5217 125.5 34.4568C127.631 32.8025 129.72 31.0633 132.022 29.6846C133.612 28.7408 135.5 28.0833 137.324 27.7758C140.834 27.2031 142.987 29.9498 141.895 33.3751C140.389 38.1261 137.017 41.5197 133.294 44.5209C130.505 46.7691 127.366 48.5826 124.492 50.9051C126.412 50.0248 128.49 49.3779 130.229 48.2114C135.638 44.6057 141.036 40.9789 146.19 37.0232C150.071 34.0433 153.55 30.533 157.272 27.3303C157.887 26.8001 158.831 26.6622 159.626 26.3335L160.156 26.9804C159.022 28.4439 157.961 29.971 156.752 31.3708C153.125 35.5916 149.435 39.7487 145.797 43.9588C145.532 44.2558 145.469 44.7224 145.299 45.1042C145.426 45.2526 145.553 45.4117 145.681 45.5602C146.699 44.9769 147.887 44.5527 148.714 43.768C152.733 39.8866 156.657 35.9097 160.623 31.9647C162.426 30.1619 164.165 28.2954 166.074 26.6092C166.615 26.132 167.654 26.2274 168.46 26.0578C168.269 26.938 168.365 28.0409 167.856 28.6666C163.582 33.8736 159.202 38.9957 154.865 44.1497C154.748 44.2876 154.716 44.4997 154.44 45.189C155.342 44.7436 155.904 44.5421 156.37 44.2134C161.535 40.5759 166.212 36.4081 170.337 31.5829C172.055 29.568 174.155 27.8818 176.18 26.1532C176.626 25.7714 177.495 25.8669 178.344 26.0578C174.038 32.4101 168.29 37.6277 165.745 44.9027C165.925 45.0617 166.106 45.2208 166.275 45.3799C168.704 43.0256 171.196 40.7243 173.55 38.2958C175.343 36.44 176.891 34.3614 178.651 32.4737C180.634 30.3527 182.702 28.2954 184.834 26.3229C185.364 25.8351 186.297 25.7926 187.538 25.3896C184.177 32.4631 178.238 37.1929 175.353 43.821L175.936 44.33L175.915 44.3724ZM119.911 48.9219C121.555 48.3175 122.848 48.0205 123.962 47.4054C128.649 44.7966 132.446 41.0955 135.998 37.1611C137.207 35.8249 138.141 34.1917 139.021 32.601C139.275 32.1344 139.127 31.1057 138.766 30.7239C138.438 30.3846 137.526 30.48 136.91 30.5861C136.423 30.6709 135.945 31.0102 135.542 31.339C131.905 34.266 128.236 37.1717 124.672 40.1941C122.148 42.3363 120.791 45.2208 119.921 48.9219H119.911ZM200.052 29.3135C199.829 29.3983 199.405 29.5468 198.992 29.7271C195.227 31.339 192.374 34.1281 189.797 37.1505C188.291 38.9109 187.167 41.0213 186.032 43.068C185.725 43.6195 186.011 44.4891 186.032 45.2208C186.775 45.1254 187.676 45.2526 188.238 44.8815C190.052 43.7043 191.791 42.3893 193.488 41.0425C196.892 38.3488 199.501 35.0083 201.42 31.1057C202.067 29.7907 201.505 29.4089 200.063 29.3135H200.052Z" fill="#1D1D1B"/>
<path d="M175.915 44.3724C177.485 43.2271 179.15 42.1878 180.613 40.9046C183.964 37.9671 187.146 34.8386 190.508 31.9223C192.926 29.8331 195.259 27.4152 198.748 27.2561C200.179 27.1925 202.141 27.0228 202.958 27.8288C204.368 29.2074 204.633 31.4344 203.849 33.3857C202.343 37.0975 199.66 39.9926 196.637 42.4742C194.58 44.1709 192.204 45.5178 189.882 46.8434C188.928 47.3842 187.708 47.4797 186.329 47.8508C189.002 48.4765 192.766 47.5009 195.757 45.5072C200.285 42.4848 204.665 39.2078 209.363 36.4824C212.184 34.8492 215.493 34.0751 218.589 32.9085C218.78 33.1524 218.982 33.3857 219.173 33.6297C218.876 34.2447 218.727 35.0719 218.239 35.4537C216.649 36.7157 215.016 37.9565 213.255 38.9639C207.783 42.0712 202.268 45.1148 196.712 48.0629C194.994 48.975 193.106 49.6643 191.218 50.1521C188.397 50.8732 185.099 49.5052 183.911 46.96C183.349 45.7405 183.593 44.1391 183.455 42.4423C181.759 43.5983 180.21 44.6588 178.662 45.7086C178.333 45.9313 178.015 46.2495 177.655 46.3025C176.403 46.4934 175.141 46.5889 173.89 46.7161C173.985 45.4647 174.07 44.2134 174.165 42.962C174.187 42.7287 174.229 42.506 174.325 41.8803C172.225 43.6195 170.486 45.2314 168.587 46.5995C165.883 48.5402 165.279 48.275 164.176 45.1254C164.006 44.6376 163.804 44.1603 163.497 43.365C162.193 44.1815 161.005 45.0087 159.743 45.698C158.311 46.4722 156.858 47.2782 155.321 47.766C153.306 48.4023 152.775 47.9145 152.627 45.8465C152.606 45.592 152.542 45.3375 152.478 45.083C152.468 45.0299 152.394 44.9875 152.128 44.7012C151.216 45.189 150.22 45.698 149.244 46.2389C148.321 46.7479 147.484 47.5221 146.497 47.7554C145.617 47.9675 144.355 47.9145 143.729 47.3948C143.22 46.9706 143.358 45.7086 143.326 44.8178C143.316 44.33 143.56 43.8316 143.846 42.7393C140.028 45.1996 136.836 47.4372 133.464 49.3567C131.152 50.6717 128.649 51.7959 126.093 52.4958C123.58 53.1851 120.939 52.4003 119.147 50.5657C118.256 49.6643 117.864 47.7024 118.097 46.3874C118.988 41.5091 121.565 37.5217 125.5 34.4568C127.631 32.8025 129.72 31.0633 132.022 29.6846C133.612 28.7408 135.5 28.0833 137.324 27.7758C140.834 27.2031 142.987 29.9498 141.895 33.3751C140.389 38.1261 137.017 41.5197 133.294 44.5209C130.505 46.7691 127.366 48.5826 124.492 50.9051C126.412 50.0248 128.49 49.3779 130.229 48.2114C135.638 44.6057 141.036 40.9789 146.19 37.0232C150.071 34.0433 153.55 30.533 157.272 27.3303C157.887 26.8001 158.831 26.6622 159.626 26.3335L160.156 26.9804C159.022 28.4439 157.961 29.971 156.752 31.3708C153.125 35.5916 149.435 39.7487 145.797 43.9588C145.532 44.2558 145.469 44.7224 145.299 45.1042C145.426 45.2526 145.553 45.4117 145.681 45.5602C146.699 44.9769 147.887 44.5527 148.714 43.768C152.733 39.8866 156.657 35.9097 160.623 31.9647C162.426 30.1619 164.165 28.2954 166.074 26.6092C166.615 26.132 167.654 26.2274 168.46 26.0578C168.269 26.938 168.365 28.0409 167.856 28.6666C163.582 33.8736 159.202 38.9957 154.865 44.1497C154.748 44.2876 154.716 44.4997 154.44 45.189C155.342 44.7436 155.904 44.5421 156.37 44.2134C161.535 40.5759 166.212 36.4081 170.337 31.5829C172.055 29.568 174.155 27.8818 176.18 26.1532C176.626 25.7714 177.495 25.8669 178.344 26.0578C174.038 32.4101 168.29 37.6277 165.745 44.9027C165.925 45.0617 166.106 45.2208 166.275 45.3799C168.704 43.0256 171.196 40.7243 173.55 38.2958C175.343 36.44 176.891 34.3614 178.651 32.4737C180.634 30.3527 182.702 28.2954 184.834 26.3229C185.364 25.8351 186.297 25.7926 187.538 25.3896C184.177 32.4631 178.238 37.1929 175.353 43.821L175.936 44.33L175.915 44.3724ZM119.911 48.9219C121.555 48.3175 122.848 48.0205 123.962 47.4054C128.649 44.7966 132.446 41.0955 135.998 37.1611C137.207 35.8249 138.141 34.1917 139.021 32.601C139.275 32.1344 139.127 31.1057 138.766 30.7239C138.438 30.3846 137.526 30.48 136.91 30.5861C136.423 30.6709 135.945 31.0102 135.542 31.339C131.905 34.266 128.236 37.1717 124.672 40.1941C122.148 42.3363 120.791 45.2208 119.921 48.9219H119.911ZM200.052 29.3135C199.829 29.3983 199.405 29.5468 198.992 29.7271C195.227 31.339 192.374 34.1281 189.797 37.1505C188.291 38.9109 187.167 41.0213 186.032 43.068C185.725 43.6195 186.011 44.4891 186.032 45.2208C186.775 45.1254 187.676 45.2526 188.238 44.8815C190.052 43.7043 191.791 42.3893 193.488 41.0425C196.892 38.3488 199.501 35.0083 201.42 31.1057C202.067 29.7907 201.505 29.4089 200.063 29.3135H200.052Z" fill="white"/>
<path d="M91.7013 60.7677C82.7932 60.4708 56.4506 81.5109 55.1886 89.9736C57.0021 89.4115 58.7201 89.1782 60.1199 88.3935C66.0162 85.0847 71.6581 81.3094 77.6922 78.287C82.4114 75.9327 87.523 74.3632 92.5285 72.624C93.939 72.1362 95.6039 72.0831 97.1204 72.221C98.8278 72.3801 99.8565 73.6739 99.1036 75.2964C98.3824 76.8235 97.4068 78.4567 96.2508 79.602C92.2316 83.6213 88.1699 87.6299 83.8113 91.2674C77.6498 96.4214 70.9263 100.419 64.4467 105.16C60.1729 108.288 57.8611 109.72 53.9373 111.947C48.1576 115.224 42.0492 118.416 36.0044 121.173C34.2121 121.99 32.0912 122.319 30.0974 122.446C27.2553 122.626 25.6222 119.975 27.0114 117.43C28.5809 114.566 30.2459 111.682 32.3245 109.19C34.8484 106.135 37.839 103.463 40.6493 100.653C41.4765 99.8256 42.3779 99.5392 43.0884 100.801C43.7459 101.978 43.4384 102.551 42.1976 103.399C40.2887 104.693 38.698 106.507 37.1497 108.246C32.0487 113.951 32.0805 114.789 29.6414 118.14C29.5566 118.257 29.5142 118.384 29.4611 118.522C28.74 120.378 30.0444 120.399 30.9776 120.166C31.0625 120.145 31.1367 120.123 31.2109 120.081C38.1147 117.101 41.0947 114.948 44.6049 113.114C53.9585 108.225 61.3183 103.028 67.0555 99.1574C82.1993 88.9237 89.4955 82.2426 92.327 79.5702C94.8192 77.2159 96.6644 75.3282 97.5552 74.4162C96.0387 74.8298 94.4374 74.9464 92.9315 75.4025C85.3808 77.6719 78.6149 81.5639 71.8914 85.5514C67.66 88.0541 63.4605 90.6841 58.5398 91.6916C56.7264 92.0628 54.5523 92.5824 53.6721 90.1645C53.6721 90.1433 53.6615 90.1221 53.6509 90.0902C52.9086 86.4952 54.8175 83.5258 56.4718 80.6413C61.0638 72.6346 67.607 66.5898 76.0061 62.772C79.9723 60.9692 84.2249 59.7496 88.3926 58.4028C89.4319 58.074 90.6727 58.1377 91.7756 58.3073C93.7481 58.6149 94.4692 60.6828 93.483 62.8887C91.9558 66.3247 89.1668 68.5623 85.9429 70.1636C83.8749 71.1923 81.5312 71.6801 79.2618 72.2316C78.8694 72.327 78.2543 71.5635 77.7453 71.1923C78.1907 70.7575 78.5831 70.2061 79.1133 69.9197C81.6267 68.5623 84.2567 67.3958 86.6852 65.9111C88.1381 65.0203 89.3152 63.6946 90.556 62.4963C90.9802 62.0827 91.2347 61.4888 91.7119 60.7571L91.7013 60.7677Z" fill="#1D1D1B"/>
<path d="M91.7013 60.7677C82.7932 60.4708 56.4506 81.5109 55.1886 89.9736C57.0021 89.4115 58.7201 89.1782 60.1199 88.3935C66.0162 85.0847 71.6581 81.3094 77.6922 78.287C82.4114 75.9327 87.523 74.3632 92.5285 72.624C93.939 72.1362 95.6039 72.0831 97.1204 72.221C98.8278 72.3801 99.8565 73.6739 99.1036 75.2964C98.3824 76.8235 97.4068 78.4567 96.2508 79.602C92.2316 83.6213 88.1699 87.6299 83.8113 91.2674C77.6498 96.4214 70.9263 100.419 64.4467 105.16C60.1729 108.288 57.8611 109.72 53.9373 111.947C48.1576 115.224 42.0492 118.416 36.0044 121.173C34.2121 121.99 32.0912 122.319 30.0974 122.446C27.2553 122.626 25.6222 119.975 27.0114 117.43C28.5809 114.566 30.2459 111.682 32.3245 109.19C34.8484 106.135 37.839 103.463 40.6493 100.653C41.4765 99.8256 42.3779 99.5392 43.0884 100.801C43.7459 101.978 43.4384 102.551 42.1976 103.399C40.2887 104.693 38.698 106.507 37.1497 108.246C32.0487 113.951 32.0805 114.789 29.6414 118.14C29.5566 118.257 29.5142 118.384 29.4611 118.522C28.74 120.378 30.0444 120.399 30.9776 120.166C31.0625 120.145 31.1367 120.123 31.2109 120.081C38.1147 117.101 41.0947 114.948 44.6049 113.114C53.9585 108.225 61.3183 103.028 67.0555 99.1574C82.1993 88.9237 89.4955 82.2426 92.327 79.5702C94.8192 77.2159 96.6644 75.3282 97.5552 74.4162C96.0387 74.8298 94.4374 74.9464 92.9315 75.4025C85.3808 77.6719 78.6149 81.5639 71.8914 85.5514C67.66 88.0541 63.4605 90.6841 58.5398 91.6916C56.7264 92.0628 54.5523 92.5824 53.6721 90.1645C53.6721 90.1433 53.6615 90.1221 53.6509 90.0902C52.9086 86.4952 54.8175 83.5258 56.4718 80.6413C61.0638 72.6346 67.607 66.5898 76.0061 62.772C79.9723 60.9692 84.2249 59.7496 88.3926 58.4028C89.4319 58.074 90.6727 58.1377 91.7756 58.3073C93.7481 58.6149 94.4692 60.6828 93.483 62.8887C91.9558 66.3247 89.1668 68.5623 85.9429 70.1636C83.8749 71.1923 81.5312 71.6801 79.2618 72.2316C78.8694 72.327 78.2543 71.5635 77.7453 71.1923C78.1907 70.7575 78.5831 70.2061 79.1133 69.9197C81.6267 68.5623 84.2567 67.3958 86.6852 65.9111C88.1381 65.0203 89.3152 63.6946 90.556 62.4963C90.9802 62.0827 91.2347 61.4888 91.7119 60.7571L91.7013 60.7677Z" fill="white"/>
<path d="M82.2915 24.3397C81.8991 20.4053 84.3277 17.5844 87.9121 17.7752C88.4424 20.0977 84.6564 24.52 82.2915 24.3397Z" fill="#1D1D1B"/>
<path d="M82.2915 24.3397C81.8991 20.4053 84.3277 17.5844 87.9121 17.7752C88.4424 20.0977 84.6564 24.52 82.2915 24.3397Z" fill="white"/>
<path d="M155.818 61.3721C155.775 62.9946 152.488 66.0913 150.918 65.8262C150.515 65.7625 149.858 64.6278 149.975 64.4475C151.067 62.8992 152.159 61.3085 153.548 60.0465C154.545 59.1451 155.85 60.0253 155.807 61.3615L155.818 61.3721Z" fill="#1D1D1B"/>
<path d="M155.818 61.3721C155.775 62.9946 152.488 66.0913 150.918 65.8262C150.515 65.7625 149.858 64.6278 149.975 64.4475C151.067 62.8992 152.159 61.3085 153.548 60.0465C154.545 59.1451 155.85 60.0253 155.807 61.3615L155.818 61.3721Z" fill="white"/>
</g>
</svg>
